<?xml version="1.0" encoding="UTF-8" standalone="no"?>
<svg
   viewBox="0 0 348 348"
   fill="none"
   version="1.1"
   id="svg835"
   sodipodi:docname="Emoji.svg"
   inkscape:version="1.1 (c68e22c387, 2021-05-23)"
   xmlns:inkscape="http://www.inkscape.org/namespaces/inkscape"
   xmlns:sodipodi="http://sodipodi.sourceforge.net/DTD/sodipodi-0.dtd"
   xmlns="http://www.w3.org/2000/svg"
   xmlns:svg="http://www.w3.org/2000/svg">
  <defs
     id="defs839" />
  <sodipodi:namedview
     id="namedview837"
     pagecolor="#ffffff"
     bordercolor="#666666"
     borderopacity="1.0"
     inkscape:pageshadow="2"
     inkscape:pageopacity="0.0"
     inkscape:pagecheckerboard="0"
     showgrid="false"
     inkscape:snap-global="false"
     inkscape:zoom="1.6357933"
     inkscape:cx="147.63479"
     inkscape:cy="108.20438"
     inkscape:window-width="1920"
     inkscape:window-height="1017"
     inkscape:window-x="-8"
     inkscape:window-y="-8"
     inkscape:window-maximized="1"
     inkscape:current-layer="svg835" />
  <path
     d="M5.079 5.776h336.913v337.67H5.08z"
     stroke-width="2"
     stroke="#000"
     id="path831" />
  <path
     d="M282.734 40.554c0-8.376 6.966-15.165 15.56-15.165 4.126 0 8.084 1.597 11.001 4.441 2.918 2.844 4.558 6.702 4.558 10.724 0 8.376-6.966 15.165-15.56 15.165-8.593 0-15.559-6.79-15.559-15.165z"
     stroke-width="2"
     stroke="#000"
     id="path833" />
  <text
     xml:space="preserve"
     style="font-size:85.3333px;line-height:1.25;font-family:Arial;-inkscape-font-specification:Arial"
     x="85.920593"
     y="153.27544"
     id="text1077"><tspan
       sodipodi:role="line"
       id="tspan1075"></tspan></text>
  <rect
     style="fill:none;stroke:#000000;stroke-width:7.42677;stroke-linecap:round;stroke-linejoin:round;stroke-miterlimit:4;stroke-dasharray:none;stop-color:#000000"
     id="rect7725"
     width="265.96527"
     height="154.13896"
     x="42.744415"
     y="84.625313"
     ry="2.1588089" />
  <rect
     style="fill:none;stroke:#000000;stroke-width:7.42677;stroke-linecap:round;stroke-linejoin:miter;stroke-miterlimit:4;stroke-dasharray:none;stop-color:#000000"
     id="rect7891"
     width="292.7345"
     height="38.4268"
     x="28.92804"
     y="294.89331"
     ry="0" />
  <path
     style="fill:none;stroke:#000000;stroke-width:2.13543307;stroke-linecap:round;stroke-linejoin:miter;stroke-miterlimit:4;stroke-dasharray:none;stop-color:#000000"
     d="m 142.41574,242.3235 26.14801,0.27966 c 3.36673,3.49951 10.81453,3.46349 14.19264,-0.20976 l 25.79843,0.0699 -0.0699,44.39568 -66.13907,0.27966 z"
     id="path8430"
     sodipodi:nodetypes="ccccccc" />
  <rect
     style="fill:#000000;stroke:none;stroke-width:8.15756;stroke-linecap:round;stroke-linejoin:miter;stroke-miterlimit:4;stroke-dasharray:none;stop-color:#000000"
     id="rect8745"
     width="68.284485"
     height="4.3347225"
     x="141.25945"
     y="286.85898"
     ry="0" />
  <ellipse
     style="fill:none;stroke:#000000;stroke-width:2.3847;stroke-linecap:round;stroke-linejoin:miter;stroke-miterlimit:4;stroke-dasharray:none;stop-color:#000000"
     id="path9990"
     cx="240.59863"
     cy="159.69112"
     rx="59.312912"
     ry="59.217964" />
  <path
     style="fill:#000000;stroke:#000000;stroke-width:2.13543;stroke-linecap:round;stroke-linejoin:round;stroke-miterlimit:4;stroke-dasharray:none;stop-color:#000000"
     d="m 203.43997,146.7872 c 10.1689,-0.0379 9.89459,0.87384 17.02447,3.22824 5.27019,3.15262 8.4872,4.89662 12.53832,7.68176 1.16207,2.89099 -0.7117,3.73282 -2.66113,3.98009 -7.91012,-4.02997 -10.1278,-5.06391 -15.1917,-7.59586 -3.34634,-1.36517 -2.46769,-1.20713 -11.55528,-2.08628 -2.62983,-1.3424 -3.78632,-3.48887 -0.15468,-5.20795 z"
     id="path10127"
     sodipodi:nodetypes="ccccccc" />
  <ellipse
     style="fill:#000000;stroke:#000000;stroke-width:2.17602;stroke-linecap:round;stroke-linejoin:round;stroke-miterlimit:4;stroke-dasharray:none;stop-color:#000000"
     id="path11325"
     cx="222.19217"
     cy="165.47884"
     rx="7.6066608"
     ry="10.445717" />
  <path
     style="fill:#000000;stroke:#000000;stroke-width:2.13532;stroke-linecap:round;stroke-linejoin:round;stroke-miterlimit:4;stroke-dasharray:none;stop-color:#000000"
     d="m 277.93582,146.78628 c -10.16791,-0.0379 -9.89362,0.87383 -17.0228,3.22823 -5.26967,3.15261 -8.48637,4.8966 -12.5371,7.68173 -1.16196,2.89098 0.71164,3.73281 2.66088,3.98008 7.90934,-4.02996 10.12681,-5.0639 15.1902,-7.59584 3.34602,-1.36516 2.46745,-1.20712 11.55415,-2.08626 2.62957,-1.3424 3.78595,-3.48887 0.15467,-5.20794 z"
     id="path10127-4"
     sodipodi:nodetypes="ccccccc" />
  <ellipse
     style="fill:#000000;stroke:#000000;stroke-width:2.17591;stroke-linecap:round;stroke-linejoin:round;stroke-miterlimit:4;stroke-dasharray:none;stop-color:#000000"
     id="path11325-7"
     cx="-259.18546"
     cy="165.47786"
     rx="7.6059151"
     ry="10.445681"
     transform="scale(-1,1)" />
  <path
     style="fill:#000000;stroke:#000000;stroke-width:2.13543;stroke-linecap:round;stroke-linejoin:round;stroke-miterlimit:4;stroke-dasharray:none;stop-color:#000000"
     d="m 218.91898,200.4957 c 2.60277,-2.17934 6.06352,-3.30902 9.99882,-4.52208 3.067,-0.78936 6.42759,-1.40247 11.00373,-1.60786 4.27886,0.24296 7.9736,1.00602 12.81257,1.80884 4.08828,1.37549 6.90927,3.05383 10.04907,4.97429 3.07973,0.73135 2.50242,-0.76332 2.663,-1.80884 -1.1156,-3.23238 -3.19199,-6.02804 -5.77822,-8.59195 -5.4624,-3.55286 -7.00196,-3.5395 -9.74759,-4.62257 -2.8932,-0.70207 -4.90837,-1.19066 -8.54171,-1.30638 -4.01841,-0.0517 -7.3199,0.15305 -10.60177,0.95466 -3.44384,1.06149 -6.40345,2.60721 -9.04416,4.47184 -2.65916,2.34929 -4.35207,4.98844 -5.67773,7.73778 -0.48922,2.06739 -0.23497,3.50147 2.86399,2.51227 z"
     id="path11837"
     sodipodi:nodetypes="ccccccccccccc" />
  <circle
     style="fill:none;stroke:#000000;stroke-width:2.13543;stroke-linecap:round;stroke-linejoin:round;stroke-miterlimit:4;stroke-dasharray:none;stop-color:#000000"
     id="path13622"
     cx="75.870476"
     cy="131.96103"
     r="4.1201186" />
  <path
     style="fill:none;stroke:#000000;stroke-width:2.13543;stroke-linecap:round;stroke-linejoin:round;stroke-miterlimit:4;stroke-dasharray:none;stop-color:#000000"
     d="m 57.492105,143.87223 c 12.359279,-36.02325 23.229833,-26.85295 27.449238,-15.02143 15.880227,5.39082 17.628977,15.54995 3.133968,23.12652 9.444179,7.92357 19.225559,15.41798 25.612089,27.23311 -9.32391,7.92172 -9.05178,16.88086 -7.88896,25.93628 L 92.614162,182.12826 c 7.034614,-5.91927 7.847388,-10.28308 -2.377493,-11.88747 -3.894232,-23.44434 -21.301886,-19.04253 -32.744564,-26.36856 z"
     id="path13746"
     sodipodi:nodetypes="cccccccc" />
  <path
     style="fill:none;stroke:#000000;stroke-width:2.13543;stroke-linecap:round;stroke-linejoin:round;stroke-miterlimit:4;stroke-dasharray:none;stop-color:#000000"
     d="m 69.843786,165.97451 c -6.664903,3.17591 -8.514308,8.38915 -4.584931,16.04726 -5.388587,1.0848 -9.385043,-2.20568 -11.920821,-10.08685 -0.867111,-8.42938 1.755028,-8.34178 4.737762,-11.00383 6.965341,-1.13498 9.811136,0.61216 11.76799,5.04342 z"
     id="path14456"
     sodipodi:nodetypes="ccccc" />
  <path
     style="fill:none;stroke:#000000;stroke-width:2.13543;stroke-linecap:round;stroke-linejoin:round;stroke-miterlimit:4;stroke-dasharray:none;stop-color:#000000"
     d="m 66.175841,160.31977 c 3.056621,-6.53085 6.113242,-3.61748 9.169863,-0.15284 1.209436,3.71117 6.794162,3.84257 12.379314,3.97361"
     id="path15145"
     sodipodi:nodetypes="ccc" />
  <path
     style="fill:none;stroke:#000000;stroke-width:2.13543;stroke-linecap:round;stroke-linejoin:round;stroke-miterlimit:4;stroke-dasharray:none;stop-color:#000000"
     d="m 65.106024,181.56328 c 12.662175,12.43301 19.10171,3.60534 27.203926,0.45849"
     id="path15313"
     sodipodi:nodetypes="cc" />
  <path
     style="fill:none;stroke:#000000;stroke-width:2.13543;stroke-linecap:round;stroke-linejoin:round;stroke-miterlimit:4;stroke-dasharray:none;stop-color:#000000"
     d="m 57.617303,143.81401 c -11.364898,-9.17961 5.991407,-21.23133 26.745432,-33.62283 5.536093,-10.52792 9.88913,-13.037341 11.767991,1.22265 8.953924,4.6815 11.833974,11.79254 12.684974,19.71521 27.39905,10.20314 43.42563,27.41671 41.11155,55.93616"
     id="path15405"
     sodipodi:nodetypes="ccccc" />
  <path
     style="fill:none;stroke:#000000;stroke-width:2.13543;stroke-linecap:round;stroke-linejoin:round;stroke-miterlimit:4;stroke-dasharray:none;stop-color:#000000"
     d="m 105.45342,206.01625 -8.100046,0.76415 c -12.875671,6.27916 -7.82526,11.4047 -3.209452,13.44913 l 42.792688,-0.15283 c 32.03915,-7.7861 30.79471,-25.14123 31.17754,-42.02853 l -2.59813,5.50191 c 2.89471,-14.17815 3.28098,-27.49627 -7.94722,-36.83228 l -1.22264,6.26608 c -0.75349,-5.30271 -1.92902,-10.42455 -5.50192,-14.51895 -9.86453,-7.3647 -8.53671,-1.37079 -5.96041,6.11324 9.35022,13.31745 5.81938,28.18063 5.65475,42.63986"
     id="path15687"
     sodipodi:nodetypes="ccccccccccc" />
  <path
     style="fill:none;stroke:#000000;stroke-width:2.13543;stroke-linecap:round;stroke-linejoin:round;stroke-miterlimit:4;stroke-dasharray:none;stop-color:#000000"
     d="m 125.16862,142.89703 c 24.13382,19.36859 18.45865,30.78811 19.56238,44.01534 -0.33369,7.33699 -6.42964,8.60796 -5.80758,0.30566 4.62306,-18.79181 -7.31805,-33.06454 -17.57557,-40.65306 -5.00192,-4.11025 -0.42447,-7.13588 3.82077,-3.66794 z"
     id="path16311"
     sodipodi:nodetypes="ccccc" />
</svg>
