<svg xmlns="http://www.w3.org/2000/svg" viewBox="0 0 3.8042419 2.1870611"><g letter-spacing="0"><path d="M24.666728 32.47899v.0088h-.476251v-.0088zm-.476251.218722h.476251v.0088h-.476251zm.372181.218723h.10407v.0088h-.10407v.211667h.10407v.0088h-.10407v.209903h.10407v.0088h-.10407v.211667h.10407v.0088h-.105834q-.01058.0441-.06174.07232-.05115.02999-.112889.02999-.04057 0-.07232-.01058-.02999-.01058-.04233-.0441-.0035-.0071-.0035-.02469 0-.01588.0018-.02293h-.05468v-.0088h.05821q.01411-.03351.04939-.06174.03704-.02822.09701-.04057.02117-.0035.03175-.0035.02646 0 .04939.0071.02469.0088.02999.01587v-.128764h-.340431v-.0088h.340431v-.209938h-.340431v-.0088h.340431v-.211667h-.340431v-.0088h.340431v-.102306h.03175z" font-family="TypeMyMusic" font-size="1.76389" style="line-height:normal;-inkscape-font-specification:TypeMyMusic;text-decoration-line:none;text-decoration-color:#000" transform="translate(-24.190477 -32.154456)"/><path d="M25.142151 32.47899v.0088h-.47625v-.0088zm-.47625.218722h.47625v.0088h-.104069v.209903h.104069v.0088h-.104069v.211667h.104069v.0088h-.104069v.209903h.104069v.0088h-.104069v.105833q-.0071.04586-.05997.07761-.05115.03175-.116416.03175-.04057 0-.07232-.01058-.02999-.01058-.04233-.0441-.0035-.0071-.0035-.0247 0-.04057.03704-.07937.0388-.0388.114653-.05468l.01058-.0018h-.239889v-.0088h.340431v-.209808h-.340431v-.0088h.340431v-.211667h-.340431v-.0088h.340431v-.209903h-.340431Zm.340431.666751h-.05645q.0194.0018.03528.0088.01764.0071.02117.01235z" font-family="TypeMyMusic" font-size="1.76389" style="line-height:normal;-inkscape-font-specification:TypeMyMusic;text-decoration-line:none;text-decoration-color:#000" transform="translate(-24.190477 -32.154456)"/><path d="M25.617575 32.47899v.0088h-.476251v-.0088zm-.105834.218722h.105834v.0088h-.105834v.209903h.105834v.0088h-.105834v.211667h.105834v.0088h-.105834v.209903h.105834v.0088h-.107598q-.01058.0441-.06174.07408-.04939.02999-.112889.02999-.04057 0-.07232-.01058-.02999-.01058-.04233-.0441-.0035-.01411-.0035-.02293 0-.0088.0035-.02646h-.07937v-.0088h.08114q.01235-.03351.04939-.05997.03704-.02822.09701-.04057.02117-.0035.03175-.0035.02646 0 .04763.0088.02293.0071.02999.01411v-.128715h-.336903v-.0088h.336903v-.211667h-.336903v-.0088h.336903v-.209903h-.336903v-.0088h.336903v-.102305h.03351z" font-family="TypeMyMusic" font-size="1.76389" style="line-height:normal;-inkscape-font-specification:TypeMyMusic;text-decoration-line:none;text-decoration-color:#000" transform="translate(-24.190477 -32.154456)"/><path d="M25.988929 32.487809v.209903h.104069v.0088h-.104069v.209903h.104069v.0088h-.104069v.211667h.104069v.0088h-.104069v.10407q-.0071.03704-.04586.06703-.03704.02999-.08996.03881h.239889v.0088h-.47625v-.0088h.149931q-.05292-.01058-.06879-.05115-.0035-.0071-.0035-.0247 0-.04057.03704-.07937.0388-.03881.114653-.05468h-.229306v-.0088h.338667v-.211667h-.338667v-.0088h.338667v-.209903h-.338667v-.0088h.338667v-.209903h-.338667v-.0088h.47625v.0088zm-.03351.657931h-.0441q.03528.0088.0441.0194z" font-family="TypeMyMusic" font-size="1.76389" style="line-height:normal;-inkscape-font-specification:TypeMyMusic;text-decoration-line:none;text-decoration-color:#000" transform="translate(-24.190477 -32.154456)"/><path d="M26.464352 32.487809v.209903h.10407v.0088h-.10407v.209903h.10407v.0088h-.10407v.211667h.10407v.0088h-.105834q-.01058.0441-.06174.07408-.05115.02822-.112889.02822-.04057 0-.07232-.01058-.02999-.01058-.04233-.0441-.0035-.0071-.0035-.02469 0-.01588.0018-.02293h-.07937v-.0088h.0829q.01411-.03351.04939-.06174.03704-.02822.09701-.04057.02117-.0035.03175-.0035.02646 0 .04763.0088.02293.0071.02999.01411v-.128764h-.338667v-.0088h.338667v-.209903h-.338667v-.0088h.338667v-.209903h-.338667v-.0088h.338667v-.10407h.03351v.10407h.10407v.0088zm-.372181.867834h.476251v.0088h-.476251z" font-family="TypeMyMusic" font-size="1.76389" style="line-height:normal;-inkscape-font-specification:TypeMyMusic;text-decoration-line:none;text-decoration-color:#000" transform="translate(-24.190477 -32.154456)"/><path d="M26.939776 32.487809v.209903h.104069v.0088h-.104069v.209903h.104069v.0088h-.104069v.10407q-.0071.04057-.04939.07055-.04057.02999-.09878.03704h.252236v.0088h-.47625v-.0088h.162278q-.0635-.0071-.08114-.05292-.0035-.0071-.0035-.02469 0-.04057.03704-.07938.0388-.03881.114652-.05468h-.229305v-.0088h.338667v-.209903h-.338667v-.0088h.338667v-.209903h-.338667v-.0088h.338667v-.213431h.03351v.213431h.104069v.0088zm-.03351.437445h-.0441q.03528.0088.0441.0194zm-.338667.430389h.47625v.0088h-.47625z" font-family="TypeMyMusic" font-size="1.76389" style="line-height:normal;-inkscape-font-specification:TypeMyMusic;text-decoration-line:none;text-decoration-color:#000" transform="translate(-24.190477 -32.154456)"/><path d="M27.415199 32.487809v.209903h.10407v.0088h-.10407v.209903h.10407v.0088h-.105834q-.01058.0441-.06174.07408-.05115.02822-.112889.02822-.04057 0-.07232-.01058-.02999-.01058-.04233-.0441-.0035-.0071-.0035-.02469 0-.01588.0018-.02293h-.07937v-.0088h.0829q.01411-.03351.04939-.06174.03704-.02822.09701-.04057.02117-.0035.03175-.0035.02646 0 .04763.0088.02293.0071.02999.01411v-.127h-.338667v-.0088h.338667v-.209903h-.338667v-.0088h.338667v-.324556h.03351v.324556h.10407v.0088zm-.372181.649112h.476251v.0088h-.476251zm0 .218722h.476251v.0088h-.476251z" font-family="TypeMyMusic" font-size="1.76389" style="line-height:normal;-inkscape-font-specification:TypeMyMusic;text-decoration-line:none;text-decoration-color:#000" transform="translate(-24.190477 -32.154456)"/><path d="M27.994692 32.47899v.0088h-.47625v-.0088zm-.47625.218722h.47625v.0088h-.197556q.04586.01235.05997.05115.0053.01058.0053.02469 0 .04057-.03704.07937-.03704.03704-.112889.05292l-.0088.0018h.291042v.0088h-.391584v.211667h.391584v.0088h-.391584l-.0018.209903h.393347v.0088h-.393347v.21343h-.03351v-.21343h-.04939v-.0088h.04939l-.0018-.209903h-.04763v-.0088h.04763v-.211667h-.04763v-.0088h.04763v-.102306q.0071-.03704.0441-.06703.03704-.02999.08819-.04057h-.179916zm.125236.218723q-.03175-.0053-.04057-.01764v.01764z" font-family="TypeMyMusic" font-size="1.76389" style="line-height:normal;-inkscape-font-specification:TypeMyMusic;text-decoration-line:none;text-decoration-color:#000" transform="translate(-24.190477 -32.154456)"/><path stroke-width="1.32292" d="m24.5129 34.184959.06718.0094q-.02067.146955-.144371.146955-.08042 0-.119824-.06169-.0394-.06169-.0394-.165042 0-.111427.04166-.170855.04166-.05943.120148-.05943.12144 0 .142433.150508l-.06783.01001q-.01098-.100123-.07428-.100123-.08462 0-.08462.174085 0 .162135.08462.162135.03391 0 .05039-.02455.01679-.02487.0239-.07138zM27.840853 34.185196l.06718.0094q-.02067.146955-.144371.146955-.08042 0-.119825-.06169-.0394-.06169-.0394-.165041 0-.111427.04166-.170855.04166-.05943.120147-.05943.12144 0 .142434.150507l-.06783.01001q-.01098-.100123-.07428-.100123-.08462 0-.08462.174085 0 .162134.08462.162134.03391 0 .05039-.02455.01679-.02487.0239-.07138z" aria-label="C" font-family="Franklin Gothic Medium Cond" font-size=".661458" style="line-height:normal;-inkscape-font-specification:'Franklin Gothic Medium Cond';text-decoration-line:none;text-decoration-color:#000" transform="translate(-24.190477 -32.154456)"/><path stroke-width="1.32292" d="M24.753195 33.892342h.09915q.07202 0 .11498.02551.04328.02551.06524.0759.02229.05038.02229.11175 0 .0646-.02003.115303-.0197.05038-.06072.08139-.04069.03101-.116271.03101h-.104645zm.07299.05846v.323946h.03036q.06363 0 .09237-.04392.02875-.04425.02875-.117887 0-.162134-.121116-.162134z" aria-label="D" font-family="Franklin Gothic Medium Cond" font-size=".661458" style="line-height:normal;-inkscape-font-specification:'Franklin Gothic Medium Cond';text-decoration-line:none;text-decoration-color:#000" transform="translate(-24.190477 -32.154456)"/><path stroke-width="1.32292" d="M25.251712 33.892342h.252569v.05846h-.179576v.125961h.140818v.05878h-.140818v.137911h.182482v.05975h-.255475z" aria-label="E" font-family="Franklin Gothic Medium Cond" font-size=".661458" style="line-height:normal;-inkscape-font-specification:'Franklin Gothic Medium Cond';text-decoration-line:none;text-decoration-color:#000" transform="translate(-24.190477 -32.154456)"/><path stroke-width="1.32292" d="M25.732478 33.892342h.244817v.05846h-.171824v.131775h.137589v.05846h-.137589v.192171h-.07299z" aria-label="F" font-family="Franklin Gothic Medium Cond" font-size=".661458" style="line-height:normal;-inkscape-font-specification:'Franklin Gothic Medium Cond';text-decoration-line:none;text-decoration-color:#000" transform="translate(-24.190477 -32.154456)"/><path stroke-width="1.32292" d="M26.339051 34.107122h.147278v.229314h-.03876l-.0097-.05588q-.03359.06072-.10626.06072-.07396 0-.115626-.05975-.04166-.06007-.04166-.162781 0-.108197.04102-.171178.04134-.0633.126608-.0633.118855 0 .14211.134359l-.06589.01647q-.01163-.05684-.03133-.07364-.0197-.01679-.04651-.01679-.08882 0-.08882.167626 0 .168594.09108.168594.07558 0 .07558-.115303h-.07913z" aria-label="G" font-family="Franklin Gothic Medium Cond" font-size=".661458" style="line-height:normal;-inkscape-font-specification:'Franklin Gothic Medium Cond';text-decoration-line:none;text-decoration-color:#000" transform="translate(-24.190477 -32.154456)"/><path stroke-width="1.32292" d="M26.769554 33.892342h.08171l.11821.440864h-.07396l-.02778-.110458h-.128868l-.02713.110458h-.06976zm.08365.272916-.05006-.201861-.04974.201861z" aria-label="A" font-family="Franklin Gothic Medium Cond" font-size=".661458" style="line-height:normal;-inkscape-font-specification:'Franklin Gothic Medium Cond';text-decoration-line:none;text-decoration-color:#000" transform="translate(-24.190477 -32.154456)"/><path stroke-width="1.32292" d="M27.138259 33.892342h.13339q.05038 0 .07655.0081.02616.0081.04425.03617.01809.02778.01809.06782 0 .07332-.06556.09657.07913.02487.07913.110782 0 .04877-.03133.08527-.03101.03617-.119179.03617h-.135328zm.07138.182805h.04619q.04877 0 .06427-.01776.0155-.01809.0155-.04651 0-.03327-.01776-.04748-.01776-.01453-.05491-.01453h-.05329zm0 .1996h.05878q.08074 0 .08074-.07138 0-.02778-.01712-.04974t-.06976-.02196h-.05265z" aria-label="B" font-family="Franklin Gothic Medium Cond" font-size=".661458" style="line-height:normal;-inkscape-font-specification:'Franklin Gothic Medium Cond';text-decoration-line:none;text-decoration-color:#000" transform="translate(-24.190477 -32.154456)"/></g></svg>